<svg width="291" height="94" viewBox="0 0 291 94" fill="none" xmlns="http://www.w3.org/2000/svg">
<g clip-path="url(#clip0)">
<path d="M87.2 1.87012H95.83V15.3701H109.18V1.87012H117.81V34.9401H109.18V22.2501H95.83V34.9401H87.2V1.87012Z" fill="white"/>
<path d="M148.52 34.9401L146.26 29.0901H132L129.68 34.9401H120.82L135 1.87012H143.86L157.73 34.9401H148.52ZM134.52 22.4901H143.67L139.18 10.7001L134.52 22.4901Z" fill="white"/>
<path d="M179.89 9.87004C178.554 9.10751 177.048 8.69474 175.51 8.67004C173.919 8.65594 172.357 9.08907 171 9.92004C169.629 10.7526 168.509 11.9415 167.76 13.36C166.967 14.8631 166.561 16.5405 166.58 18.24C166.561 19.9427 166.967 21.6234 167.76 23.13C168.509 24.5486 169.629 25.7375 171 26.57C172.37 27.4043 173.946 27.8373 175.55 27.82C177.02 27.8023 178.467 27.4609 179.79 26.82C181.286 26.1302 182.642 25.1709 183.79 23.99L188.79 29.42C186.974 31.3231 184.804 32.8519 182.4 33.92C179.848 35.12 177.046 35.6925 174.228 35.5899C171.41 35.4873 168.658 34.7124 166.2 33.33C163.606 31.8674 161.454 29.7325 159.97 27.15C158.446 24.4815 157.665 21.4529 157.71 18.38C157.663 15.3625 158.445 12.3899 159.97 9.78569C161.495 7.1815 163.705 5.04547 166.36 3.61004C168.853 2.28305 171.611 1.53301 174.433 1.41531C177.254 1.29761 180.066 1.81527 182.66 2.93004C184.956 3.88445 187.03 5.30429 188.75 7.10004L183.75 13.1C182.699 11.7698 181.385 10.6703 179.89 9.87004V9.87004Z" fill="white"/>
<path d="M224.24 34.9401H213.91L205.23 22.1101L201.07 26.7301V34.9401H192.44V1.87012H201.07V16.2101L213.48 1.87012H223.48L211.22 15.5101L224.24 34.9401Z" fill="white"/>
<path d="M87.08 60.1201H95.71V93.1901H87.08V60.1201Z" fill="white"/>
<path d="M102.12 60.1201H110.76V85.8301H124.76V93.1901H102.12V60.1201Z" fill="white"/>
<path d="M131.32 60.1201H140V85.8301H154V93.1901H131.32V60.1201Z" fill="white"/>
<path d="M158.78 60.1201H167.41V93.1901H158.78V60.1201Z" fill="white"/>
<path d="M197.32 60.1201H205.32V93.1901H197.77L182.77 73.4301V93.1901H174.7V60.1201H182.3L197.3 80.0301L197.32 60.1201Z" fill="white"/>
<path d="M237.58 61.8199C240.255 63.2402 242.486 65.37 244.03 67.9756C245.574 70.5812 246.369 73.5617 246.33 76.5899C246.381 79.6509 245.592 82.6672 244.049 85.3115C242.507 87.9559 240.269 90.1272 237.58 91.5899C234.764 93.0677 231.631 93.8397 228.45 93.8397C225.269 93.8397 222.136 93.0677 219.32 91.5899C216.657 90.1566 214.44 88.0187 212.91 85.4099C211.34 82.7492 210.531 79.7088 210.57 76.6199C210.531 73.5917 211.326 70.6112 212.87 68.0056C214.413 65.4 216.645 63.2702 219.32 61.8499C222.142 60.3908 225.273 59.6294 228.45 59.6294C231.627 59.6294 234.758 60.3908 237.58 61.8499V61.8199ZM224 68.1899C222.598 69.0402 221.451 70.2527 220.68 71.6999C219.866 73.2246 219.44 74.9265 219.44 76.6549C219.44 78.3834 219.866 80.0852 220.68 81.6099C221.466 83.0545 222.609 84.2734 224 85.1499C225.356 86.0031 226.928 86.4507 228.53 86.4399C230.123 86.4506 231.685 86.0028 233.03 85.1499C234.4 84.276 235.515 83.0545 236.26 81.6099C237.035 80.0732 237.439 78.3761 237.439 76.6549C237.439 74.9337 237.035 73.2366 236.26 71.6999C235.519 70.2607 234.403 69.0481 233.03 68.1899C231.681 67.3477 230.12 66.9072 228.53 66.9199C226.931 66.915 225.363 67.3547 224 68.1899V68.1899Z" fill="white"/>
<path d="M250.2 60.1201H258.83V93.1901H250.2V60.1201Z" fill="white"/>
<path d="M282 67.53C280.394 66.9422 278.708 66.605 277 66.53C276.121 66.4792 275.245 66.6841 274.48 67.12C274.186 67.2976 273.946 67.551 273.784 67.8537C273.622 68.1564 273.545 68.4971 273.56 68.84C273.554 69.1817 273.622 69.5207 273.76 69.8333C273.898 70.1459 274.103 70.4246 274.36 70.65C274.944 71.1686 275.623 71.5693 276.36 71.83C277.15 72.13 278.36 72.52 279.85 72.99C281.789 73.5305 283.689 74.1987 285.54 74.99C287.048 75.6581 288.367 76.6887 289.38 77.99C290.508 79.5426 291.076 81.4325 290.99 83.35C291.022 85.384 290.379 87.3711 289.16 89C287.932 90.6041 286.27 91.8223 284.37 92.51C282.206 93.318 279.91 93.718 277.6 93.69C274.811 93.68 272.045 93.193 269.42 92.25C266.85 91.3761 264.461 90.0409 262.37 88.31L265.72 81.57C267.479 83.0991 269.479 84.3258 271.64 85.2C273.55 86.0569 275.608 86.5357 277.7 86.61C278.746 86.6601 279.785 86.4177 280.7 85.91C281.053 85.6934 281.342 85.3864 281.538 85.0208C281.733 84.6551 281.827 84.2441 281.81 83.83C281.811 83.4853 281.739 83.1442 281.599 82.8289C281.46 82.5137 281.256 82.2313 281 82C280.396 81.4679 279.692 81.0602 278.93 80.8C278.09 80.5 276.93 80.15 275.41 79.74C273.5 79.2286 271.626 78.5905 269.8 77.83C268.314 77.1762 267.01 76.1706 266 74.9C264.884 73.3995 264.326 71.5575 264.42 69.69C264.381 67.7694 264.951 65.8858 266.05 64.31C267.216 62.7046 268.82 61.4688 270.67 60.75C272.897 59.872 275.277 59.4471 277.67 59.5C280.066 59.4944 282.45 59.8312 284.75 60.5C286.914 61.1023 288.978 62.0151 290.88 63.21L287.62 70.1C285.844 69.0456 283.96 68.1841 282 67.53V67.53Z" fill="white"/>
<path d="M18.04 37.63H44.98V20.59H62.78V0H11.95L0 20.59H18.04V37.63Z" fill="#EC2A39"/>
<path d="M44.98 55.6101H18.04V72.6501H0V93.2301H51.3L62.78 72.6501H44.98V55.6101Z" fill="#EC2A39"/>
</g>
<defs>
<clipPath id="clip0">
<rect width="290.91" height="93.8" fill="white"/>
</clipPath>
</defs>
</svg>
